<svg xmlns="http://www.w3.org/2000/svg" xmlns:xlink="http://www.w3.org/1999/xlink" version="1.1" x="0px" y="0px" viewBox="0 0 512 640" style="enable-background:new 0 0 512 512;" xml:space="preserve"><g><g><path d="M256,59.7c-108.2,0-196.3,88-196.3,196.3s88,196.3,196.3,196.3s196.3-88,196.3-196.3S364.2,59.7,256,59.7z     M381.5,318.2c3.3,3.3,3.3,8.7,0,12.1l-51.2,51.2c-1.7,1.7-3.9,2.5-6,2.5s-4.4-0.8-6-2.5L256,319.3l-62.2,62.2    c-3.3,3.3-8.7,3.3-12.1,0l-51.2-51.2c-3.3-3.3-3.3-8.7,0-12.1l62.2-62.2l-62.2-62.2c-3.3-3.3-3.3-8.7,0-12.1l51.2-51.2    c3.3-3.3,8.7-3.3,12.1,0l62.2,62.2l62.2-62.2c3.3-3.3,8.7-3.3,12.1,0l51.2,51.2c3.3,3.3,3.3,8.7,0,12.1L319.3,256L381.5,318.2z"/><path d="M262,210.8c-3.3,3.3-8.7,3.3-12.1,0l-62.2-62.2l-39.1,39.1l62.2,62.2c3.3,3.3,3.3,8.7,0,12.1l-62.2,62.2    l39.1,39.1l62.2-62.2c1.7-1.7,3.8-2.5,6-2.5s4.4,0.8,6,2.5l62.2,62.2l39.1-39.1L301.2,262c-3.3-3.3-3.3-8.7,0-12.1l62.2-62.2    l-39.1-39.1L262,210.8z"/></g></g><text x="0" y="527" fill="#000000" font-size="5px" font-weight="bold" font-family="'Helvetica Neue', Helvetica, Arial-Unicode, Arial, Sans-serif">Created by ibrandify</text><text x="0" y="532" fill="#000000" font-size="5px" font-weight="bold" font-family="'Helvetica Neue', Helvetica, Arial-Unicode, Arial, Sans-serif">from the Noun Project</text></svg>